<svg width="146" height="56" viewBox="0 0 146 56" fill="none" xmlns="http://www.w3.org/2000/svg">
<path d="M28.7437 25.2609L37.3577 16.6417C37.5493 16.4504 37.7928 16.3202 38.0583 16.2675C38.3235 16.2147 38.5987 16.2418 38.8487 16.3454C39.0986 16.449 39.3122 16.6243 39.4626 16.8493C39.6132 17.0743 39.6935 17.3389 39.6937 17.6096V38.3904C39.6935 38.6612 39.6132 38.9256 39.4626 39.1506C39.3122 39.3758 39.0986 39.5511 38.8487 39.6546C38.5987 39.7581 38.3235 39.7853 38.0583 39.7325C37.7928 39.6799 37.5493 39.5496 37.3577 39.3583L28.7437 30.7391M8.2125 40.3261H24.6375C25.7267 40.3261 26.771 39.8932 27.541 39.1226C28.3111 38.3522 28.7437 37.3072 28.7437 36.2174V19.7826C28.7437 18.6929 28.3111 17.6479 27.541 16.8773C26.771 16.1068 25.7267 15.6739 24.6375 15.6739H8.2125C7.12346 15.6739 6.079 16.1068 5.30895 16.8773C4.53887 17.6479 4.10625 18.6929 4.10625 19.7826V36.2174C4.10625 37.3072 4.53887 38.3522 5.30895 39.1226C6.079 39.8932 7.12346 40.3261 8.2125 40.3261Z" stroke="#F57600" stroke-width="3" stroke-linecap="round" stroke-linejoin="round"/>
<path d="M58.9353 31.6522H54.9349V11.2H58.9353V19.4393H63.6073V11.2H67.6077V31.6522H63.6073V23.1791H58.9353V31.6522ZM79.9382 11.2C81.3008 12.3103 82.3131 13.8004 82.975 15.6703C83.6368 17.5402 83.9678 19.4685 83.9678 21.4553C83.9678 23.4226 83.6466 25.2925 83.0042 27.0651C82.3618 28.8376 81.3398 30.3666 79.9382 31.6522H73.923C72.5214 30.3666 71.4994 28.8376 70.857 27.0651C70.2146 25.2925 69.8934 23.4226 69.8934 21.4553C69.8934 19.4685 70.2243 17.5402 70.8862 15.6703C71.548 13.8004 72.5603 12.3103 73.923 11.2H79.9382ZM75.8794 28.263H77.9818C78.4684 27.6981 78.8772 26.7826 79.2082 25.5165C79.5586 24.231 79.7338 22.8772 79.7338 21.4553C79.7338 20.0334 79.5683 18.6991 79.2374 17.4525C78.9064 16.1864 78.4976 15.271 78.011 14.7061H75.8794C75.3927 15.271 74.9742 16.1864 74.6238 17.4525C74.2928 18.6991 74.1274 20.0334 74.1274 21.4553C74.1274 22.8772 74.2928 24.231 74.6238 25.5165C74.9742 26.7826 75.3927 27.6981 75.8794 28.263ZM87.6861 11.2H94.6941V14.7061H89.0877L89.0001 14.8814L93.6721 23.4129C94.626 25.127 95.1029 26.432 95.1029 27.328C95.1029 29.2953 94.4508 30.7367 93.1465 31.6522H85.4085V28.263H91.4529L91.5405 28.0877L86.2845 18.6504C85.5253 17.287 85.1457 16.1767 85.1457 15.3197C85.1457 13.2939 85.9925 11.9207 87.6861 11.2ZM100.438 14.7061H96.0286V11.2H108.818V14.7061H104.409V31.6522H100.438V14.7061ZM110.512 31.6522V11.2H114.512V31.6522H110.512ZM126.437 31.6522L120.977 20.3451L120.831 20.4035L121.006 23.8511V31.6522H117.327V11.2H120.276L125.649 22.9454L125.795 22.887L125.474 19.2932V11.2H129.153V31.6522H126.437ZM141.65 31.6522H135.46C134.058 30.3666 133.036 28.8376 132.394 27.0651C131.751 25.2925 131.43 23.4421 131.43 21.5138C131.43 19.5659 131.819 17.6473 132.598 15.7579C133.377 13.8685 134.467 12.3492 135.868 11.2H142.964V14.7061H137.533C137.027 15.2904 136.589 16.2157 136.219 17.4818C135.849 18.7284 135.664 20.0626 135.664 21.4845C135.664 22.887 135.829 24.231 136.16 25.5165C136.511 26.7826 136.939 27.6981 137.445 28.263H140.248V20.3158H144.103V25.2244C144.103 27.9124 143.285 30.055 141.65 31.6522Z" fill="#1B1B1B"/>
<path d="M55.1729 48.6957C54.8403 48.6957 54.6741 48.5174 54.6741 48.1607V39.0018C54.6741 38.6451 54.8403 38.4666 55.1729 38.4666H57.8391C59.5502 38.4666 60.736 38.7449 61.3964 39.3013C62.0619 39.8576 62.3946 40.647 62.3946 41.6696C62.3946 42.692 62.0619 43.4813 61.3964 44.0377C60.736 44.594 59.5502 44.8723 57.8391 44.8723H56.7555V48.1607C56.7555 48.5174 56.5894 48.6957 56.2565 48.6957H55.1729ZM56.7555 43.1317H57.8321C58.7825 43.1317 59.429 43.0199 59.7712 42.7964C60.1133 42.5683 60.2844 42.1926 60.2844 41.6696C60.2844 41.1464 60.1133 40.7731 59.7712 40.5496C59.429 40.3212 58.7825 40.2073 57.8321 40.2073H56.7555V43.1317ZM63.1501 48.6957C62.808 48.6957 62.6963 48.5386 62.8153 48.2248L66.3083 39.0444C66.4555 38.6592 66.6789 38.4666 66.9785 38.4666H67.9764C68.2759 38.4666 68.4993 38.6592 68.6465 39.0444L72.1398 48.2248C72.2586 48.5386 72.1469 48.6957 71.8047 48.6957H70.6713C70.3576 48.6957 70.1389 48.5315 70.0153 48.2036L69.2882 46.2847H65.6667L64.9396 48.2036C64.816 48.5315 64.5974 48.6957 64.2838 48.6957H63.1501ZM66.3297 44.5156H68.6251L67.7484 42.2474C67.6437 41.981 67.5797 41.7884 67.5559 41.6696C67.5369 41.5459 67.5155 41.3653 67.4917 41.1274H67.4632C67.4393 41.3653 67.4157 41.5459 67.3919 41.6696C67.3729 41.7884 67.3111 41.981 67.2065 42.2474L66.3297 44.5156ZM73.9076 48.6957C73.575 48.6957 73.4088 48.5174 73.4088 48.1607V39.0018C73.4088 38.6451 73.575 38.4666 73.9076 38.4666H77.2084C78.677 38.4666 79.7486 38.695 80.4236 39.1515C81.0984 39.6032 81.4359 40.3405 81.4359 41.3628C81.4359 42.1237 81.1626 42.7299 80.6161 43.1818C80.0696 43.6335 79.3756 43.933 78.5344 44.0805V44.0949C78.9906 44.2661 79.3352 44.5037 79.568 44.808C79.8009 45.1124 79.991 45.3787 80.1384 45.6069L81.7067 48.0821C81.968 48.4911 81.8778 48.6957 81.4359 48.6957H80.1954C79.934 48.6957 79.7201 48.5554 79.5539 48.2747L78.1139 45.8708C77.9569 45.6142 77.6693 45.3335 77.2513 45.0291C76.8376 44.7201 76.4266 44.5655 76.0178 44.5655H75.4903V48.1607C75.4903 48.5174 75.3241 48.6957 74.9914 48.6957H73.9076ZM75.4903 42.7964H76.7665C77.717 42.7964 78.3918 42.6895 78.7911 42.4755C79.195 42.2569 79.397 41.9121 79.397 41.4412C79.397 40.9277 79.2021 40.5949 78.8125 40.4427C78.4275 40.2857 77.8596 40.2073 77.1087 40.2073H75.4903V42.7964ZM83.2251 40.2927C82.8689 40.2927 82.6905 40.1384 82.6905 39.8291V38.9305C82.6905 38.6213 82.8689 38.4666 83.2251 38.4666H90.5538C90.9103 38.4666 91.0884 38.6213 91.0884 38.9305V39.8291C91.0884 40.1384 90.9103 40.2927 90.5538 40.2927H87.9302V48.3034C87.9302 48.5649 87.8114 48.6957 87.574 48.6957H86.2052C85.9675 48.6957 85.8487 48.5649 85.8487 48.3034V40.2927H83.2251ZM92.0579 39.0802C91.8155 38.6712 91.9272 38.4666 92.3929 38.4666H93.6405C93.8877 38.4666 94.1062 38.6307 94.2965 38.959L95.8149 41.6053C95.8577 41.6767 95.9836 41.9002 96.1926 42.2759C96.4018 42.6467 96.523 43.0082 96.5564 43.3601H96.5848C96.6182 43.0082 96.7393 42.6467 96.9484 42.2759C97.1574 41.9002 97.2834 41.6767 97.3263 41.6053L98.8447 38.959C99.0347 38.6307 99.2535 38.4666 99.5004 38.4666H100.748C101.214 38.4666 101.325 38.6712 101.083 39.0802L97.6115 44.9507V48.3034C97.6115 48.5649 97.445 48.6957 97.1124 48.6957H96.0288C95.6959 48.6957 95.5297 48.5649 95.5297 48.3034V44.9507L92.0579 39.0802Z" fill="#F57600"/>
</svg>
