<svg width="40" height="30" viewBox="0 0 40 30" fill="none" xmlns="http://www.w3.org/2000/svg">
<path d="M26.7437 12.2609L35.3577 3.64175C35.5493 3.45044 35.7928 3.32021 36.0583 3.26747C36.3235 3.21471 36.5987 3.24183 36.8487 3.34538C37.0986 3.44896 37.3122 3.62431 37.4626 3.84931C37.6132 4.07431 37.6935 4.33887 37.6937 4.60957V25.3904C37.6935 25.6612 37.6132 25.9256 37.4626 26.1506C37.3122 26.3758 37.0986 26.5511 36.8487 26.6546C36.5987 26.7581 36.3235 26.7853 36.0583 26.7325C35.7928 26.6799 35.5493 26.5496 35.3577 26.3583L26.7437 17.7391M6.2125 27.3261H22.6375C23.7267 27.3261 24.771 26.8932 25.541 26.1226C26.3111 25.3522 26.7437 24.3072 26.7437 23.2174V6.78262C26.7437 5.69293 26.3111 4.64787 25.541 3.87733C24.771 3.1068 23.7267 2.67392 22.6375 2.67392H6.2125C5.12346 2.67392 4.079 3.1068 3.30895 3.87733C2.53887 4.64787 2.10625 5.69293 2.10625 6.78262V23.2174C2.10625 24.3072 2.53887 25.3522 3.30895 26.1226C4.079 26.8932 5.12346 27.3261 6.2125 27.3261Z" stroke="#F57600" stroke-width="4" stroke-linecap="round" stroke-linejoin="round"/>
</svg>
